<svg xmlns="http://www.w3.org/2000/svg" width="369" height="369" style="shape-rendering:geometricPrecision;text-rendering:geometricPrecision;image-rendering:optimizeQuality;fill-rule:evenodd;clip-rule:evenodd"><path style="opacity:.949" fill="#e3e4e3" d="M156.5-.5h55c72.045 14.202 121.545 55.536 148.5 124a400.423 400.423 0 0 1 8.5 33v55c-14.202 72.045-55.536 121.545-124 148.5a400.423 400.423 0 0 1-33 8.5h-55C84.48 354.326 34.98 312.993 8 244.5a400.395 400.395 0 0 1-8.5-33v-55C13.702 84.455 55.036 34.955 123.5 8a400.395 400.395 0 0 1 33-8.5z"/><path style="opacity:.989" fill="#a5b6a8" d="M183.5 23.5a229.626 229.626 0 0 1-20 2c6.409-1.765 13.076-2.432 20-2z"/><path style="opacity:1" fill="#272c3d" d="M183.5 23.5c70.261 3.695 120.094 37.362 149.5 101a195.967 195.967 0 0 1 9.5 39 386.87 386.87 0 0 1 1 35c-5.353 42.876-24.02 78.709-56 107.5-24.24 19.808-51.906 31.975-83 36.5a229.665 229.665 0 0 0-20 2h-1a229.665 229.665 0 0 0-20-2C97.583 331.413 53.416 294.413 31 231.5a144.59 144.59 0 0 1-5.5-27 210.63 210.63 0 0 1 0-41c8.128-53.285 35.462-93.452 82-120.5 17.608-8.957 36.274-14.79 56-17.5a229.626 229.626 0 0 0 20-2z"/><path style="opacity:1" fill="#e2e3e2" d="M170.5 126.5c-1.25.077-2.083.744-2.5 2-.831 35.836-.664 71.502.5 107 .667 5.248 3.334 9.248 8 12 5.915 2.669 11.915 2.502 18-.5 3.698-2.919 5.364-6.753 5-11.5v-34h-15v-26h43a918.505 918.505 0 0 1-1.5 71c-5.33 16.328-16.497 25.828-33.5 28.5-24.394 3.56-41.227-5.94-50.5-28.5l-1-8-.5-54.5c-.118-20.861.382-41.695 1.5-62.5 5.376-16.38 16.542-25.88 33.5-28.5 13.351-1.912 25.684.755 37 8 6.495 5.5 10.995 12.333 13.5 20.5a198.903 198.903 0 0 1 1.5 30h-28c.166-6.342 0-12.675-.5-19-.584-6.691-4.084-10.858-10.5-12.5-7.631-1.776-13.631.39-18 6.5z"/><path style="opacity:.992" fill="#bfd2c0" d="M170.5 126.5a20.093 20.093 0 0 1-1.5 6c-.5 34.332-.667 68.665-.5 103a1911.863 1911.863 0 0 1-.5-107c.417-1.256 1.25-1.923 2.5-2z"/><path style="opacity:.988" fill="#a5b7a8" d="M25.5 163.5a210.63 210.63 0 0 0 0 41c-.802-1.452-1.302-3.118-1.5-5a240.488 240.488 0 0 1 0-31c.198-1.882.698-3.548 1.5-5z"/><path style="opacity:.988" fill="#a9bbac" d="M342.5 163.5c1.558 6.422 2.224 13.089 2 20-.001 5.178-.334 10.178-1 15a386.87 386.87 0 0 0-1-35z"/><path style="opacity:.996" fill="#838d88" d="M227.5 175.5h-43v26c-.993-8.818-1.327-17.818-1-27 14.843-.329 29.51.004 44 1z"/><path style="opacity:.988" fill="#b4c3b6" d="M199.5 235.5c.364 4.747-1.302 8.581-5 11.5-6.085 3.002-12.085 3.169-18 .5 11.939 3.502 19.605-.498 23-12z"/><path style="opacity:.989" fill="#a5b6a8" d="M163.5 342.5a229.665 229.665 0 0 1 20 2c-6.924.432-13.591-.234-20-2z"/><path style="opacity:.989" fill="#a6b7a9" d="M204.5 342.5c-6.409 1.766-13.076 2.432-20 2a229.665 229.665 0 0 1 20-2z"/></svg>