<?xml version="1.0" standalone="no"?>
<!DOCTYPE svg PUBLIC "-//W3C//DTD SVG 20010904//EN"
 "http://www.w3.org/TR/2001/REC-SVG-20010904/DTD/svg10.dtd">
<svg version="1.0" xmlns="http://www.w3.org/2000/svg"
 width="369.000000pt" height="369.000000pt" viewBox="0 0 369.000000 369.000000"
 preserveAspectRatio="xMidYMid meet">

<g transform="translate(0.000000,369.000000) scale(0.100000,-0.100000)"
fill="#000000" stroke="none">
<path d="M1 2838 c1 -763 2 -842 15 -753 81 603 447 1122 984 1399 196 101
385 161 605 190 89 13 10 14 -752 15 l-853 1 1 -852z"/>
<path d="M2085 3674 c221 -30 410 -89 605 -190 550 -285 918 -820 989 -1434 5
-47 9 244 10 783 l1 857 -852 -1 c-763 -1 -842 -2 -753 -15z"/>
<path d="M1735 3438 c-213 -14 -370 -55 -571 -148 -463 -216 -798 -651 -896
-1165 -8 -44 -13 -147 -13 -280 0 -248 8 -303 77 -515 29 -92 117 -271 179
-365 216 -328 527 -551 934 -669 215 -62 585 -62 800 0 260 75 451 176 648
342 260 219 462 573 529 927 17 95 18 466 0 560 -68 357 -268 707 -530 928
-336 283 -725 413 -1157 385z m257 -701 c132 -42 205 -107 255 -228 23 -58 26
-78 27 -199 l1 -135 -135 0 -135 0 -6 105 c-7 117 -15 144 -54 180 -23 22 -36
25 -100 25 -67 0 -76 -2 -103 -28 -17 -17 -35 -48 -41 -72 -15 -60 -15 -1020
0 -1080 6 -24 24 -55 41 -72 27 -26 36 -28 103 -28 67 0 76 2 103 28 42 41 52
92 52 276 l0 161 -80 0 -81 0 3 133 3 132 215 0 215 0 0 -345 0 -345 -28 -65
c-66 -157 -215 -250 -402 -250 -187 0 -335 92 -402 250 l-28 65 0 600 0 600
28 65 c15 36 45 86 67 112 104 121 309 170 482 115z"/>
<path d="M3677 1635 c-23 -273 -150 -605 -325 -855 -87 -124 -317 -355 -442
-442 -247 -175 -557 -292 -860 -327 -47 -5 244 -9 783 -10 l857 -1 0 855 c0
470 -2 855 -4 855 -1 0 -6 -34 -9 -75z"/>
<path d="M1 853 l-1 -853 858 1 c471 1 844 4 827 6 -287 34 -466 86 -685 199
-184 96 -295 178 -455 339 -160 160 -245 274 -339 455 -101 195 -160 384 -190
605 -13 89 -14 10 -15 -752z"/>
</g>
</svg>
