<?xml version="1.0" encoding="UTF-8"?>
<!DOCTYPE svg PUBLIC "-//W3C//DTD SVG 1.1//EN" "http://www.w3.org/Graphics/SVG/1.1/DTD/svg11.dtd">
<svg xmlns="http://www.w3.org/2000/svg" version="1.1" width="369px" height="369px" style="shape-rendering:geometricPrecision; text-rendering:geometricPrecision; image-rendering:optimizeQuality; fill-rule:evenodd; clip-rule:evenodd" xmlns:xlink="http://www.w3.org/1999/xlink">
<g><path style="opacity:0.949" fill="#e3e4e3" d="M 156.5,-0.5 C 174.833,-0.5 193.167,-0.5 211.5,-0.5C 283.545,13.7023 333.045,55.0356 360,123.5C 363.33,134.489 366.163,145.489 368.5,156.5C 368.5,174.833 368.5,193.167 368.5,211.5C 354.298,283.545 312.964,333.045 244.5,360C 233.511,363.33 222.511,366.163 211.5,368.5C 193.167,368.5 174.833,368.5 156.5,368.5C 84.4795,354.326 34.9795,312.993 8,244.5C 4.67013,233.511 1.8368,222.511 -0.5,211.5C -0.5,193.167 -0.5,174.833 -0.5,156.5C 13.7023,84.4551 55.0356,34.9551 123.5,8C 134.489,4.67013 145.489,1.8368 156.5,-0.5 Z"/></g>
<g><path style="opacity:0.989" fill="#a5b6a8" d="M 183.5,23.5 C 177.006,24.4442 170.339,25.1109 163.5,25.5C 169.909,23.7345 176.576,23.0678 183.5,23.5 Z"/></g>
<g><path style="opacity:1" fill="#272c3d" d="M 183.5,23.5 C 253.761,27.1953 303.594,60.862 333,124.5C 337.5,137.169 340.667,150.169 342.5,163.5C 343.361,175.144 343.695,186.81 343.5,198.5C 338.147,241.376 319.48,277.209 287.5,306C 263.26,325.808 235.594,337.975 204.5,342.5C 197.661,342.889 190.994,343.556 184.5,344.5C 184.167,344.5 183.833,344.5 183.5,344.5C 177.006,343.556 170.339,342.889 163.5,342.5C 97.5832,331.413 53.4165,294.413 31,231.5C 28.3067,222.673 26.4734,213.673 25.5,204.5C 24.1667,190.833 24.1667,177.167 25.5,163.5C 33.6281,110.215 60.9615,70.0482 107.5,43C 125.108,34.0434 143.774,28.21 163.5,25.5C 170.339,25.1109 177.006,24.4442 183.5,23.5 Z"/></g>
<g><path style="opacity:1" fill="#e2e3e2" d="M 170.5,126.5 C 169.25,126.577 168.417,127.244 168,128.5C 167.169,164.336 167.336,200.002 168.5,235.5C 169.167,240.748 171.834,244.748 176.5,247.5C 182.415,250.169 188.415,250.002 194.5,247C 198.198,244.081 199.864,240.247 199.5,235.5C 199.5,224.167 199.5,212.833 199.5,201.5C 194.5,201.5 189.5,201.5 184.5,201.5C 184.5,192.833 184.5,184.167 184.5,175.5C 198.833,175.5 213.167,175.5 227.5,175.5C 227.915,199.198 227.415,222.865 226,246.5C 220.67,262.828 209.503,272.328 192.5,275C 168.106,278.56 151.273,269.06 142,246.5C 141.667,243.833 141.333,241.167 141,238.5C 140.833,220.333 140.667,202.167 140.5,184C 140.382,163.139 140.882,142.305 142,121.5C 147.376,105.12 158.542,95.6199 175.5,93C 188.851,91.0885 201.184,93.7551 212.5,101C 218.995,106.5 223.495,113.333 226,121.5C 227.256,131.459 227.756,141.459 227.5,151.5C 218.167,151.5 208.833,151.5 199.5,151.5C 199.666,145.158 199.5,138.825 199,132.5C 198.416,125.809 194.916,121.642 188.5,120C 180.869,118.224 174.869,120.39 170.5,126.5 Z"/></g>
<g><path style="opacity:0.992" fill="#bfd2c0" d="M 170.5,126.5 C 170.313,128.564 169.813,130.564 169,132.5C 168.5,166.832 168.333,201.165 168.5,235.5C 167.336,200.002 167.169,164.336 168,128.5C 168.417,127.244 169.25,126.577 170.5,126.5 Z"/></g>
<g><path style="opacity:0.988" fill="#a5b7a8" d="M 25.5,163.5 C 24.1667,177.167 24.1667,190.833 25.5,204.5C 24.6981,203.048 24.1981,201.382 24,199.5C 23.3333,189.167 23.3333,178.833 24,168.5C 24.1981,166.618 24.6981,164.952 25.5,163.5 Z"/></g>
<g><path style="opacity:0.988" fill="#a9bbac" d="M 342.5,163.5 C 344.058,169.922 344.724,176.589 344.5,183.5C 344.499,188.678 344.166,193.678 343.5,198.5C 343.695,186.81 343.361,175.144 342.5,163.5 Z"/></g>
<g><path style="opacity:0.996" fill="#838d88" d="M 227.5,175.5 C 213.167,175.5 198.833,175.5 184.5,175.5C 184.5,184.167 184.5,192.833 184.5,201.5C 183.507,192.682 183.173,183.682 183.5,174.5C 198.343,174.171 213.01,174.504 227.5,175.5 Z"/></g>
<g><path style="opacity:0.988" fill="#b4c3b6" d="M 199.5,235.5 C 199.864,240.247 198.198,244.081 194.5,247C 188.415,250.002 182.415,250.169 176.5,247.5C 188.439,251.002 196.105,247.002 199.5,235.5 Z"/></g>
<g><path style="opacity:0.989" fill="#a5b6a8" d="M 163.5,342.5 C 170.339,342.889 177.006,343.556 183.5,344.5C 176.576,344.932 169.909,344.266 163.5,342.5 Z"/></g>
<g><path style="opacity:0.989" fill="#a6b7a9" d="M 204.5,342.5 C 198.091,344.266 191.424,344.932 184.5,344.5C 190.994,343.556 197.661,342.889 204.5,342.5 Z"/></g>
</svg>
